<mxfile host="65bd71144e">
    <diagram id="HO6eFnv4Ha75E03WryYL" name="第 1 页">
        <mxGraphModel dx="1616" dy="1142" grid="1" gridSize="10" guides="1" tooltips="1" connect="1" arrows="1" fold="1" page="1" pageScale="1" pageWidth="827" pageHeight="1169" math="0" shadow="0">
            <root>
                <mxCell id="0"/>
                <mxCell id="1" parent="0"/>
                <mxCell id="2" value="" style="group" vertex="1" connectable="0" parent="1">
                    <mxGeometry x="290.05352941176466" y="530" width="191.1764705882353" height="30" as="geometry"/>
                </mxCell>
                <mxCell id="3" value="categorical" style="rounded=0;whiteSpace=wrap;html=1;fillColor=#dae8fc;strokeColor=#6c8ebf;" vertex="1" parent="2">
                    <mxGeometry width="80.88235294117646" height="30" as="geometry"/>
                </mxCell>
                <mxCell id="4" value="numerical" style="rounded=0;whiteSpace=wrap;html=1;fillColor=#BCC8D9;strokeColor=#6c8ebf;" vertex="1" parent="2">
                    <mxGeometry x="80.88235294117649" width="110.29411764705881" height="30" as="geometry"/>
                </mxCell>
                <mxCell id="5" value="" style="group" vertex="1" connectable="0" parent="1">
                    <mxGeometry x="481.2335294117647" y="530" width="191.1764705882353" height="30" as="geometry"/>
                </mxCell>
                <mxCell id="6" value="categorical" style="rounded=0;whiteSpace=wrap;html=1;fillColor=#d5e8d4;strokeColor=#82b366;" vertex="1" parent="5">
                    <mxGeometry width="80.88235294117646" height="30" as="geometry"/>
                </mxCell>
                <mxCell id="7" value="numerical" style="rounded=0;whiteSpace=wrap;html=1;fillColor=#C5D6C4;strokeColor=#82b366;" vertex="1" parent="5">
                    <mxGeometry x="80.88235294117646" width="110.29411764705881" height="30" as="geometry"/>
                </mxCell>
                <mxCell id="9" style="edgeStyle=none;html=1;exitX=0.5;exitY=0;exitDx=0;exitDy=0;entryX=0.5;entryY=1;entryDx=0;entryDy=0;entryPerimeter=0;" edge="1" parent="1" source="10" target="13">
                    <mxGeometry relative="1" as="geometry"/>
                </mxCell>
                <mxCell id="10" value="DNN" style="shape=trapezoid;perimeter=trapezoidPerimeter;whiteSpace=wrap;html=1;fixedSize=1;size=98.18000000000006;" vertex="1" parent="1">
                    <mxGeometry x="351.82" y="397" width="260" height="100" as="geometry"/>
                </mxCell>
                <mxCell id="11" style="edgeStyle=none;html=1;exitX=0;exitY=0;exitDx=0;exitDy=0;entryX=0.5;entryY=1;entryDx=0;entryDy=0;" edge="1" parent="1" source="6" target="10">
                    <mxGeometry relative="1" as="geometry"/>
                </mxCell>
                <mxCell id="12" style="edgeStyle=none;html=1;exitX=0.5;exitY=0;exitDx=0;exitDy=0;exitPerimeter=0;" edge="1" parent="1" source="13">
                    <mxGeometry relative="1" as="geometry">
                        <mxPoint x="481.8199999999997" y="330" as="targetPoint"/>
                    </mxGeometry>
                </mxCell>
                <mxCell id="13" value="" style="pointerEvents=1;verticalLabelPosition=bottom;shadow=0;dashed=0;align=center;html=1;verticalAlign=top;shape=mxgraph.electrical.signal_sources.source;aspect=fixed;points=[[0.5,0,0],[1,0.5,0],[0.5,1,0],[0,0.5,0]];elSignalType=ac;" vertex="1" parent="1">
                    <mxGeometry x="466.81999999999994" y="350" width="30" height="30" as="geometry"/>
                </mxCell>
                <mxCell id="14" value="&lt;span&gt;dec_probs&lt;/span&gt;" style="strokeWidth=1;html=1;shape=mxgraph.flowchart.terminator;whiteSpace=wrap;fillColor=#f8cecc;strokeColor=#b85450;" vertex="1" parent="1">
                    <mxGeometry x="443.02" y="290" width="77.59" height="40" as="geometry"/>
                </mxCell>
                <mxCell id="15" value="Sigmoid" style="text;html=1;strokeColor=none;fillColor=none;align=center;verticalAlign=middle;whiteSpace=wrap;rounded=0;" vertex="1" parent="1">
                    <mxGeometry x="510.23" y="350" width="60" height="30" as="geometry"/>
                </mxCell>
            </root>
        </mxGraphModel>
    </diagram>
</mxfile>